<svg xmlns="http://www.w3.org/2000/svg" viewBox="0 0 74.5 73.03"><defs><style>.cls-1{fill:#bbc7d4;}.cls-2{fill:#fff;}</style></defs><title>Recurso 343</title><g id="Capa_2" data-name="Capa 2"><g id="Capa_1-2" data-name="Capa 1"><rect class="cls-1" width="74.5" height="73.03" rx="16.46"/><path class="cls-2" d="M37.25,15.26A21.26,21.26,0,1,0,58.51,36.52,21.28,21.28,0,0,0,37.25,15.26Zm0,38.26a17,17,0,1,1,17-17A17,17,0,0,1,37.25,53.52Z"/><polygon class="cls-2" points="42.12 28.64 37.25 33.51 32.37 28.64 29.37 31.64 34.24 36.52 29.37 41.39 32.37 44.4 37.25 39.52 42.12 44.4 45.13 41.39 40.26 36.52 45.13 31.64 42.12 28.64"/></g></g></svg>