<svg xmlns="http://www.w3.org/2000/svg" viewBox="0 0 74.5 73.03"><defs><style>.cls-1{fill:#acb7c9;}.cls-2{fill:#fff;}</style></defs><title>Recurso 364</title><g id="Capa_2" data-name="Capa 2"><g id="Capa_1-2" data-name="Capa 1"><rect class="cls-1" width="74.5" height="73.03" rx="16.46"/><path class="cls-2" d="M37.25,57.77A21.26,21.26,0,1,1,58.51,36.51,21.28,21.28,0,0,1,37.25,57.77Zm0-38.26a17,17,0,1,0,17,17A17,17,0,0,0,37.25,19.51Z"/><path class="cls-2" d="M37.25,49.27a2.17,2.17,0,0,1-1.1-.3C35,48.25,24.49,41.76,24.49,34.39c0-5.08,3.42-8.5,8.51-8.5a6.31,6.31,0,0,1,4.25,1.8,6.29,6.29,0,0,1,4.25-1.8c5.09,0,8.5,3.42,8.5,8.5C50,41.76,39.54,48.25,38.34,49A2.11,2.11,0,0,1,37.25,49.27ZM33,30.14a3.9,3.9,0,0,0-4.26,4.25c0,3.69,5.49,8.17,8.51,10.23,3-2.06,8.5-6.54,8.5-10.23,0-1.28-.41-4.25-4.25-4.25a2.49,2.49,0,0,0-2.13,2.12,2.13,2.13,0,1,1-4.25,0A2.48,2.48,0,0,0,33,30.14Z"/></g></g></svg>